#!OML:ASF E:\Steps\Project 1\Capture day 1\Session 2\Subject.ASF
:FULLY-SPECIFIED
:DEGREES
126
root -1.31519 16.2513 21.0816 -154.659 -0.680897 179.58
lowerback -29.5521 -2.11369 -6.90122
upperback -1.58407 -1.20051 0.0643543
thorax 13.8991 -1.26403 3.27864
lowerneck -2.28978 -4.85864 -0.489227
upperneck 15.3936 -6.35725 3.97375
head 5.14691 -2.57352 1.01264
rclavicle 1.08835e-014 3.02153e-014
rhumerus -38.9588 -19.9393 -77.0138
rradius 30.165
rwrist -0.0453802
rhand -8.11477 -55.3872
rfingers 7.12502
rthumb -162.202 -264.593
lclavicle 1.08835e-014 3.02153e-014
lhumerus -29.7244 8.4786 79.851
lradius 18.9837
lwrist -7.49915
lhand -21.4365 -12.112
lfingers 7.12502
lthumb 4.95287 17.8101
rfemur -23.7858 7.83138 19.9057
rtibia 9.39057
rfoot -19.2799 -4.00985
rtoes -23.1614
lfemur -22.06 -6.54696 -21.4244
ltibia 6.56779
lfoot -7.01986 0.0027085
ltoes -26.3279
127
root -1.31167 16.2513 21.0822 -154.653 -0.683119 179.539
lowerback -29.5744 -2.1319 -6.9871
upperback -1.5764 -1.19404 0.0685489
thorax 13.9177 -1.26712 3.33147
lowerneck -2.23956 -4.83132 -0.423629
upperneck 15.3267 -6.30948 3.85315
head 5.11058 -2.55827 0.968883
rclavicle 3.37934e-015 -1.63003e-014
rhumerus -38.9394 -19.996 -76.9533
rradius 30.3109
rwrist -0.479087
rhand -7.76301 -56.4069
rfingers 7.12502
rthumb -161.863 -265.581
lclavicle 3.37934e-015 -1.63003e-014
lhumerus -29.6906 8.39404 79.9177
lradius 19.0056
lwrist -7.31053
lhand -21.3496 -12.349
lfingers 7.12502
lthumb 5.03683 17.5711
rfemur -23.8058 7.9599 19.8343
rtibia 9.40406
rfoot -19.2877 -4.12253
rtoes -23.0121
lfemur -22.0824 -6.53956 -21.447
ltibia 6.59537
lfoot -7.04718 -0.0601305
ltoes -25.715
128
root -1.30285 16.2519 21.0801 -154.712 -0.615964 179.548
lowerback -29.5525 -2.12878 -7.10604
upperback -1.57487 -1.15305 0.0811135
thorax 13.9059 -1.25583 3.42598
lowerneck -2.16168 -4.83846 -0.330307
upperneck 15.3151 -6.30364 3.72136
head 5.0865 -2.55872 0.915476
rclavicle -4.37326e-015 -9.93923e-015
rhumerus -38.9613 -19.996 -76.952
rradius 30.3428
rwrist -0.648459
rhand -7.65305 -56.7225
rfingers 7.12502
rthumb -161.757 -265.887
lclavicle -4.37326e-015 -9.93923e-015
lhumerus -29.7111 8.13066 80.0335
lradius 19.0055
lwrist -6.8481
lhand -21.4692 -12.9537
lfingers 7.12502
lthumb 4.92134 16.9691
rfemur -23.7636 8.14677 19.8157
rtibia 9.39556
rfoot -19.2603 -4.20439
rtoes -22.9015
lfemur -22.0009 -6.53106 -21.3748
ltibia 6.53412
lfoot -7.00798 0.0800055
ltoes -25.3432
129
root -1.31147 16.2546 21.0831 -154.734 -0.645847 179.484
lowerback -29.4887 -2.08791 -7.02755
upperback -1.60461 -1.12524 0.00377956
thorax 13.8367 -1.23547 3.31167
lowerneck -2.08292 -4.88597 -0.207733
upperneck 15.3427 -6.35398 3.60735
head 5.07528 -2.58101 0.859774
rclavicle 1.16289e-014 2.3059e-014
rhumerus -38.9758 -19.9885 -76.9826
rradius 30.2783
rwrist -0.735182
rhand -7.75474 -56.5509
rfingers 7.12502
rthumb -161.855 -265.725
lclavicle 1.16289e-014 2.3059e-014
lhumerus -29.6979 7.98215 80.0751
lradius 18.9724
lwrist -6.61063
lhand -21.7964 -13.362
lfingers 7.12502
lthumb 4.60534 16.5679
rfemur -23.7468 7.40816 19.8869
rtibia 9.41398
rfoot -19.2718 -3.5125
rtoes -22.8241
lfemur -21.9388 -6.68707 -21.4982
ltibia 6.48027
lfoot -6.95481 0.182104
ltoes -25.8613
130
root -1.30869 16.2539 21.0837 -154.77 -0.694281 179.53
lowerback -29.4422 -2.0854 -6.99115
upperback -1.59962 -1.13589 0.0179513
thorax 13.8232 -1.23666 3.30471
lowerneck -2.09844 -4.90865 -0.179932
upperneck 15.3278 -6.38374 3.56372
head 5.07165 -2.59819 0.839903
rclavicle -3.37934e-015 4.33351e-014
rhumerus -38.8918 -19.9164 -77.0317
rradius 30.2193
rwrist -0.783507
rhand -7.87435 -56.2748
rfingers 7.12502
rthumb -161.97 -265.459
lclavicle -3.37934e-015 4.33351e-014
lhumerus -29.618 8.22249 79.9882
lradius 19.0524
lwrist -7.34217
lhand -21.5645 -12.6052
lfingers 7.12502
lthumb 4.82928 17.3197
rfemur -23.7157 7.18782 20.003
rtibia 9.42638
rfoot -19.2778 -3.32516
rtoes -22.8943
lfemur -21.9069 -6.80425 -21.3913
ltibia 6.4739
lfoot -6.96903 0.238176
ltoes -25.9057
131
root -1.3125 16.2507 21.0832 -154.759 -0.76383 179.599
lowerback -29.4597 -2.05348 -6.85165
upperback -1.60584 -1.14135 0.0327218
thorax 13.8248 -1.23093 3.24311
lowerneck -2.19539 -4.95588 -0.342506
upperneck 15.3914 -6.46523 3.75542
head 5.12104 -2.63175 0.918116
rclavicle 1.54058e-015 3.97569e-016
rhumerus -38.8459 -19.9313 -76.9997
rradius 30.1841
rwrist -0.692281
rhand -7.83971 -56.107
rfingers 7.12502
rthumb -161.937 -265.288
lclavicle 1.54058e-015 3.97569e-016
lhumerus -29.6001 8.2524 80.0204
lradius 19.1667
lwrist -7.553
lhand -21.4573 -12.2581
lfingers 7.12502
lthumb 4.93285 17.6645
rfemur -23.718 7.22891 20.0784
rtibia 9.45522
rfoot -19.3476 -3.39032
rtoes -22.5775
lfemur -21.9101 -6.86439 -21.3102
ltibia 6.45968
lfoot -7.06999 0.185677
ltoes -24.9084
132
root -1.30685 16.2513 21.0797 -154.754 -0.75589 179.557
lowerback -29.5061 -2.06861 -6.97058
upperback -1.62247 -1.12327 0.0267574
thorax 13.8243 -1.2317 3.30634
lowerneck -2.08628 -4.89552 -0.369401
upperneck 15.3249 -6.387 3.85546
head 5.08427 -2.58996 0.960798
rclavicle -1.30204e-014 -4.37326e-015
rhumerus -38.9038 -19.9884 -76.9606
rradius 30.2116
rwrist -0.658702
rhand -7.65579 -56.2676
rfingers 7.12502
rthumb -161.76 -265.432
lclavicle -1.30204e-014 -4.37326e-015
lhumerus -29.6263 7.97674 80.1476
lradius 19.2033
lwrist -6.89963
lhand -21.7296 -12.5291
lfingers 7.12502
lthumb 4.66985 17.3994
rfemur -23.7188 7.72223 19.9228
rtibia 9.4477
rfoot -19.3616 -3.89949
rtoes -22.0827
lfemur -21.9255 -6.77607 -21.3386
ltibia 6.46912
lfoot -7.06766 0.103465
ltoes -24.4686
133
root -1.30277 16.2533 21.0809 -154.838 -0.784866 179.602
lowerback -29.3935 -2.07584 -6.97109
upperback -1.63203 -1.14171 0.0520635
thorax 13.7654 -1.23731 3.32995
lowerneck -1.7906 -4.8882 -0.343232
upperneck 15.0075 -6.3748 3.86381
head 4.93545 -2.59773 0.968925
rclavicle 3.08116e-015 -9.14409e-015
rhumerus -38.9537 -19.9011 -76.9891
rradius 30.3042
rwrist -0.74044
rhand -7.52679 -56.5346
rfingers 7.12502
rthumb -161.636 -265.688
lclavicle 3.08116e-015 -9.14409e-015
lhumerus -29.6043 7.85551 80.2323
lradius 19.2235
lwrist -6.54141
lhand -21.8264 -12.6458
lfingers 7.12502
lthumb 4.57644 17.2848
rfemur -23.5844 8.10602 19.9468
rtibia 9.36175
rfoot -19.2802 -4.27493
rtoes -22.2736
lfemur -21.8557 -6.61003 -21.2946
ltibia 6.48699
lfoot -6.95645 -0.0161655
ltoes -24.4134
